<svg xmlns="http://www.w3.org/2000/svg" viewBox="0 0 1000 1000" role="img" aria-labelledby="title desc">
<title id="title">CC-2A – Plombier Chauffagiste</title>
<desc id="desc">Logo CC-2A plomberie chauffage avec douche, clé et coordonnées</desc>
<rect width="1000" height="1000" fill="#000"/>
<circle cx="500" cy="500" r="470" fill="#141622" stroke="#ffcc1a" stroke-width="12"/>
<path d="M180 560A330 330 0 0 1 820 560" fill="none" stroke="#fff" stroke-width="12" stroke-linecap="round"/>
<path d="M315 752A330 330 0 0 0 685 752" fill="none" stroke="#fff" stroke-width="12" stroke-linecap="round"/>
<g fill="none" stroke="#ffcc1a" stroke-width="14" stroke-linecap="round" stroke-linejoin="round">
  <path d="M383 335a145 145 0 1 0 230 115"/>
  <path d="M397 352l130 128c18 18 18 47 0 65s-47 18-65 0L335 416"/>
  <path d="M335 416c-38 8-71-24-65-61l52 52"/>
  <path d="M535 430V222c0-31 25-56 56-56h63c30 0 55 25 55 56v74"/>
  <path d="M709 296c38 13 58 39 58 66H620c0-30 28-56 89-66Z"/>
  <path d="M640 405c-10 18-20 34-20 48 0 18 15 33 33 33s33-15 33-33c0-14-19-30-46-48Z"/>
  <path d="M712 405c-10 18-20 34-20 48 0 18 15 33 33 33s33-15 33-33c0-14-19-30-46-48Z"/>
  <path d="M784 405c-10 18-20 34-20 48 0 18 15 33 33 33s33-15 33-33c0-14-19-30-46-48Z"/>
</g>
<text x="500" y="640" text-anchor="middle" font-family="Arial, Helvetica, sans-serif" font-size="150" font-weight="900" fill="#ffcc1a">CC-2A</text>
<text x="500" y="715" text-anchor="middle" font-family="Arial, Helvetica, sans-serif" font-size="42" letter-spacing="12" fill="#fff">PLOMBIER, CHAUFFAGISTE.</text>
<text x="500" y="835" text-anchor="middle" font-family="Arial, Helvetica, sans-serif" font-size="46" font-weight="700" fill="#ffcc1a">Tel : 06.03.82.81.67</text>
<text x="500" y="890" text-anchor="middle" font-family="Arial, Helvetica, sans-serif" font-size="36" font-style="italic" fill="#ffcc1a">Mail : cappaichristophe@sfr.fr</text>
</svg>
